<svg width="442" height="777" viewBox="0 0 442 777" fill="none" xmlns="http://www.w3.org/2000/svg">
<path d="M221 23C190.487 23 164.568 42.6683 155.229 70.0185H286.771C277.432 42.6683 251.513 23 221 23Z" fill="#D9D9D9"/>
<path d="M155.229 70.0185C164.568 42.6683 190.487 23 221 23C251.513 23 277.432 42.6683 286.771 70.0185M155.229 70.0185H95.095C55.278 70.0185 23 102.296 23 142.113V681.259C23 721.076 55.278 753.354 95.095 753.354H346.905C386.722 753.354 419 721.076 419 681.259V142.113C419 102.296 386.722 70.0185 346.905 70.0185H286.771M155.229 70.0185H286.771" stroke="#D9D9D9" stroke-width="46"/>
<path d="M281.078 321.829H183.28L158.83 423.702H207.729L183.28 525.575L281.078 385.499H219.954L281.078 321.829Z" fill="#D9D9D9"/>
</svg>
